<!--?xml version="1.0" encoding="utf-8"?-->
<!-- Generator: Adobe Illustrator 15.1.0, SVG Export Plug-In . SVG Version: 6.00 Build 0)  -->

<svg version="1.1" id="_x32_" xmlns="http://www.w3.org/2000/svg" xmlns:xlink="http://www.w3.org/1999/xlink" x="0px" y="0px" width="512px" height="512px" viewBox="0 0 512 512" style="width: 256px; height: 256px; opacity: 1;" xml:space="preserve">
<style type="text/css">

	.st0{fill:#4B4B4B;}

</style>
<g>
	<path class="st0" d="M509.151,74.391c-3.344-14.016-9.969-23.25-19.75-27.438c-2.484-1.063-61.766-26.063-141.203-26.063
		c-85.719,0-161.953,30.125-220.484,87.109C27.651,205.406,37.417,315.078,48.089,397.875
		c-16.156,20.297-32.297,41.453-48.094,63.156l20.672,15.047l14.781,10.734l0,0l5.906,4.297
		c14.625-20.125,29.078-39.141,43.828-57.766c5.297,0.406,10.531,0.781,15.906,1.203c26.375,2.141,53.656,4.359,81.813,4.359
		c73.813,0,170.047-13.688,259.859-120.344C501.979,248.25,519.651,118.688,509.151,74.391z M409.245,290.344
		c-77.719,92.281-158.031,104.719-226.344,104.719c-24.5,0-48.969-1.844-72.766-3.75c83.563-99.281,170.125-177.281,254.141-228.281
		l-18.953-31.219c-85.406,51.875-173.031,130.031-257.438,229.203c-7.188-71.969-3.656-149.516,70.406-221.625
		c50.891-49.547,114.781-74.672,189.906-74.672c57.703,0,103.594,14.906,118.672,20.469
		C474.354,113.516,459.448,230.719,409.245,290.344z" style="fill: rgb(62, 61, 59);"></path>
</g>
</svg>
