<!--?xml version="1.0" encoding="utf-8"?-->
<!-- Generator: Adobe Illustrator 15.1.0, SVG Export Plug-In . SVG Version: 6.00 Build 0)  -->

<svg version="1.1" id="_x32_" xmlns="http://www.w3.org/2000/svg" xmlns:xlink="http://www.w3.org/1999/xlink" x="0px" y="0px" width="512px" height="512px" viewBox="0 0 512 512" style="width: 256px; height: 256px; opacity: 1;" xml:space="preserve">
<style type="text/css">

	.st0{fill:#4B4B4B;}

</style>
<g>
	<path class="st0" d="M369.48,0c-78.188,0-141.594,63.391-141.594,141.594c0,8.047-0.172,32.281-0.172,32.281l2.781,79.656
		c0.578,4.25-1.531,8.375-5.313,10.375s-8.391,1.422-11.547-1.438c0,0-29.094-26.563-45.328-41
		c-3.906-7.094-8.906-13.188-14.938-17.984c0.297-0.734,0.547-1.484,0.766-2.297c3.625-12.969-1.188-29.813-14.188-33.438
		c-13-3.609-29.266,7.359-32.891,20.375c-0.391,1.469-0.641,2.938-0.781,4.375c-49.625,6.75-65.891,49.719-87.641,81.75
		c-0.25,0.344-29.875,11.938-11.953,35.844c21.5,28.672,33.453,21.5,86.031,29.875c7.063,1.125,22.891,1.984,29.469,0.219
		l1.094,7.719l-13.516,15.563c-2.156,2.516-5.109,4.188-8.344,4.781l-28.422,7.531c-6.906,2-11.219,7.688-10,14.438
		c1.234,6.75,7.281,10.531,14.438,9.984l29.313-2.625c8.281-1.516,15.922-5.344,22.063-11.016l1.594,11.156
		c0,0-30.469,42.594-5.375,80.234C87.386,483.328,96.355,512,96.355,512h158.031c0,0,3.344-6.25,7.172-17.953
		c54.172-8.328,129.625-69.234,110.719-189.922c-8.703,1.422-25.109-1.719-30.422-2.234l11.625-19.609
		c3.844,0.438,7.703,0.719,11.641,0.828c0.125,0.016,0.266,0.016,0.391,0.016c1.313,0.047,2.641,0.063,3.969,0.063
		c1.453,0,2.906-0.016,4.359-0.078c0.359,0,0.734-0.016,1.109-0.031c1.141-0.047,2.297-0.109,3.438-0.172
		c0.297-0.016,0.625-0.031,0.938-0.063c3-0.203,5.969-0.5,8.906-0.875l0,0c69.329-9.188,122.844-68.531,122.844-140.375
		C511.074,63.391,447.684,0,369.48,0z" style="fill: rgb(75, 16, 237);"></path>
</g>
</svg>
